<?xml version="1.0" encoding="UTF-8"?>
<svg xmlns="http://www.w3.org/2000/svg" xmlns:xlink="http://www.w3.org/1999/xlink" width="210px" height="210px" viewBox="0 0 210 210" version="1.1">
<g id="surface1">
<path style=" stroke:none;fill-rule:nonzero;fill:rgb(0%,0%,0%);fill-opacity:1;" d="M 124.296875 50.367188 C 124.296875 50.59375 124.359375 50.652344 124.421875 50.488281 C 124.484375 50.347656 124.460938 50.160156 124.402344 50.101562 C 124.339844 50.019531 124.277344 50.140625 124.296875 50.367188 Z M 124.296875 50.367188 "/>
<path style=" stroke:none;fill-rule:nonzero;fill:rgb(0%,0%,0%);fill-opacity:1;" d="M 114.84375 52.234375 C 114.84375 52.457031 115.089844 52.765625 115.542969 53.113281 C 115.871094 53.359375 115.847656 53.300781 115.460938 52.746094 C 114.96875 52.070312 114.84375 51.964844 114.84375 52.234375 Z M 114.84375 52.234375 "/>
<path style=" stroke:none;fill-rule:nonzero;fill:rgb(0%,0%,0%);fill-opacity:1;" d="M 116.464844 54.285156 C 116.585938 54.53125 116.566406 54.734375 116.382812 54.898438 C 116.15625 55.105469 116.074219 55.105469 116.011719 54.898438 C 115.929688 54.734375 115.890625 54.753906 115.890625 54.960938 C 115.890625 55.308594 116.667969 57.214844 116.667969 56.910156 C 116.691406 56.785156 116.609375 56.394531 116.503906 56.027344 C 116.339844 55.515625 116.363281 55.371094 116.585938 55.371094 C 116.730469 55.371094 116.914062 55.492188 116.957031 55.617188 C 117.039062 55.800781 117.078125 55.800781 117.078125 55.597656 C 117.101562 55.390625 117.304688 55.492188 117.734375 55.902344 C 118.207031 56.335938 118.125 56.148438 117.40625 55.207031 C 116.421875 53.933594 116.09375 53.628906 116.464844 54.285156 Z M 116.464844 54.285156 "/>
<path style=" stroke:none;fill-rule:nonzero;fill:rgb(0%,0%,0%);fill-opacity:1;" d="M 123.273438 55.289062 C 123.273438 55.515625 123.335938 55.574219 123.394531 55.410156 C 123.457031 55.269531 123.4375 55.082031 123.375 55.023438 C 123.3125 54.941406 123.253906 55.0625 123.273438 55.289062 Z M 123.273438 55.289062 "/>
<path style=" stroke:none;fill-rule:nonzero;fill:rgb(0%,0%,0%);fill-opacity:1;" d="M 119.027344 57.441406 C 119.316406 57.851562 119.5625 58.222656 119.5625 58.28125 C 119.5625 58.34375 119.191406 58.652344 118.71875 58.980469 C 117.898438 59.554688 117.878906 59.554688 117.570312 59.164062 C 117.285156 58.773438 117.265625 58.773438 117.40625 59.265625 C 117.488281 59.554688 117.570312 59.800781 117.613281 59.839844 C 117.675781 59.902344 119.949219 58.570312 119.949219 58.445312 C 119.972656 58.386719 119.644531 57.976562 119.234375 57.523438 C 118.535156 56.746094 118.515625 56.722656 119.027344 57.441406 Z M 119.027344 57.441406 "/>
<path style=" stroke:none;fill-rule:nonzero;fill:rgb(0%,0%,0%);fill-opacity:1;" d="M 108.363281 59.511719 C 108.816406 59.882812 110.269531 61.132812 111.625 62.28125 C 112.957031 63.449219 114.085938 64.394531 114.125 64.394531 C 114.167969 64.394531 114.476562 63.859375 114.824219 63.226562 C 115.316406 62.34375 115.398438 62.015625 115.214844 61.890625 C 114.699219 61.5625 114.414062 61.832031 114.824219 62.242188 C 114.945312 62.363281 114.84375 62.773438 114.558594 63.308594 L 114.085938 64.167969 L 112.773438 63.019531 C 111.316406 61.769531 110.515625 60.988281 110.90625 61.195312 C 111.050781 61.277344 111.152344 61.214844 111.152344 61.050781 C 111.152344 60.765625 111.644531 60.742188 112.484375 60.988281 C 112.710938 61.070312 112.445312 60.90625 111.871094 60.640625 C 111.316406 60.355469 110.621094 60.066406 110.351562 59.984375 L 109.859375 59.839844 L 110.292969 60.3125 C 110.949219 60.988281 110.660156 61.050781 109.820312 60.414062 C 109.019531 59.800781 108.917969 59.636719 109.472656 59.800781 C 109.800781 59.902344 109.800781 59.902344 109.449219 59.675781 C 109.265625 59.554688 109 59.511719 108.898438 59.574219 C 108.773438 59.636719 108.691406 59.617188 108.691406 59.511719 C 108.691406 59.410156 108.445312 59.226562 108.136719 59.082031 C 107.667969 58.898438 107.707031 58.960938 108.363281 59.511719 Z M 108.363281 59.511719 "/>
<path style=" stroke:none;fill-rule:nonzero;fill:rgb(0%,0%,0%);fill-opacity:1;" d="M 122.636719 63.265625 C 121.632812 65.398438 121.039062 66.445312 120.8125 66.445312 C 120.628906 66.445312 119.375 66.589844 118.023438 66.753906 C 116.667969 66.917969 115.191406 67.058594 114.742188 67.058594 L 113.921875 67.082031 L 115.765625 68.824219 C 117.878906 70.8125 117.203125 70.710938 121.652344 69.789062 L 124.257812 69.253906 L 124.320312 64.660156 C 124.359375 62.160156 124.320312 60.085938 124.257812 60.085938 C 124.195312 60.085938 123.476562 61.523438 122.636719 63.265625 Z M 122.636719 63.265625 "/>
<path style=" stroke:none;fill-rule:nonzero;fill:rgb(0%,0%,0%);fill-opacity:1;" d="M 131.96875 68.003906 C 130.738281 68.394531 128.542969 69.050781 127.109375 69.480469 L 124.484375 70.238281 L 124.484375 76.207031 L 127.496094 77.886719 C 129.136719 78.8125 130.53125 79.550781 130.554688 79.507812 C 130.574219 79.488281 130.285156 77.847656 129.917969 75.878906 L 129.242188 72.289062 L 131.84375 69.789062 C 133.261719 68.414062 134.386719 67.285156 134.328125 67.304688 C 134.265625 67.304688 133.21875 67.613281 131.96875 68.003906 Z M 131.96875 68.003906 "/>
<path style=" stroke:none;fill-rule:nonzero;fill:rgb(0%,0%,0%);fill-opacity:1;" d="M 109.308594 67.984375 C 108.570312 68.125 107.277344 68.371094 106.4375 68.515625 L 104.898438 68.761719 L 108.179688 69.316406 C 109.984375 69.625 111.808594 69.929688 112.21875 69.992188 L 113 70.117188 L 112.671875 69.601562 C 112.484375 69.335938 112.238281 69.171875 112.117188 69.253906 C 111.992188 69.316406 111.972656 69.273438 112.054688 69.152344 C 112.136719 69.027344 112.054688 68.640625 111.871094 68.289062 C 111.523438 67.59375 111.359375 67.574219 109.308594 67.984375 Z M 109.308594 67.984375 "/>
<path style=" stroke:none;fill-rule:nonzero;fill:rgb(0%,0%,0%);fill-opacity:1;" d="M 95.363281 71.367188 C 95.175781 71.488281 95.15625 71.570312 95.300781 71.570312 C 95.421875 71.570312 95.609375 71.46875 95.667969 71.367188 C 95.832031 71.121094 95.75 71.121094 95.363281 71.367188 Z M 95.363281 71.367188 "/>
<path style=" stroke:none;fill-rule:nonzero;fill:rgb(0%,0%,0%);fill-opacity:1;" d="M 121.613281 71.695312 L 120.6875 71.980469 L 121.488281 71.859375 C 122.453125 71.714844 122.636719 71.40625 119.644531 74.957031 C 118.515625 76.308594 117.078125 78.011719 116.464844 78.75 C 114.496094 81.128906 111.113281 84.941406 108.691406 87.464844 C 105.429688 90.890625 103.8125 92.980469 102.601562 95.320312 C 101.597656 97.226562 100.652344 100.035156 100.367188 101.882812 C 100.285156 102.355469 100.140625 102.804688 100.039062 102.867188 C 99.914062 102.949219 99.875 102.804688 99.957031 102.519531 C 100.015625 102.25 100.015625 102.148438 99.957031 102.292969 C 99.894531 102.414062 99.769531 102.496094 99.6875 102.4375 C 99.585938 102.394531 99.546875 102.578125 99.585938 102.867188 C 99.628906 103.277344 99.566406 103.359375 99.238281 103.257812 C 98.949219 103.152344 98.847656 103.234375 98.808594 103.503906 C 98.808594 103.707031 98.726562 103.398438 98.664062 102.847656 C 98.582031 102.273438 98.601562 101.71875 98.683594 101.59375 C 98.785156 101.472656 98.847656 101.144531 98.828125 100.878906 C 98.828125 100.609375 98.910156 100.058594 99.011719 99.648438 C 99.136719 99.132812 99.136719 98.910156 98.972656 98.886719 C 98.253906 98.828125 97.945312 98.664062 97.679688 98.210938 C 97.472656 97.863281 97.414062 97.84375 97.515625 98.128906 C 98.234375 100.40625 98.292969 101.082031 98.375 108.300781 L 98.480469 115.621094 L 99.382812 113.878906 C 100.285156 112.136719 101.207031 110.699219 102.066406 109.65625 C 102.476562 109.140625 102.539062 108.855469 102.539062 107.195312 C 102.539062 103.398438 103.421875 99.542969 104.9375 96.796875 C 106.148438 94.582031 106.96875 93.597656 111.359375 89.105469 C 113.675781 86.726562 116.300781 83.9375 117.183594 82.890625 C 118.0625 81.867188 118.84375 81.003906 118.925781 81.003906 C 118.988281 81.027344 119.828125 81.660156 120.792969 82.421875 L 122.535156 83.835938 L 122.636719 77.765625 C 122.699219 74.402344 122.699219 71.613281 122.636719 71.550781 C 122.574219 71.488281 122.125 71.550781 121.613281 71.695312 Z M 121.613281 71.695312 "/>
<path style=" stroke:none;fill-rule:nonzero;fill:rgb(0%,0%,0%);fill-opacity:1;" d="M 94.234375 71.796875 C 93.886719 71.960938 93.925781 71.960938 94.398438 71.878906 C 95.011719 71.757812 95.054688 71.816406 94.726562 72.453125 C 94.542969 72.84375 94.582031 72.824219 94.929688 72.390625 C 95.21875 72.023438 95.257812 71.839844 95.09375 71.734375 C 94.808594 71.550781 94.746094 71.550781 94.234375 71.796875 Z M 94.234375 71.796875 "/>
<path style=" stroke:none;fill-rule:nonzero;fill:rgb(0%,0%,0%);fill-opacity:1;" d="M 97.1875 73.152344 C 96.921875 73.480469 96.941406 73.5 97.269531 73.234375 C 97.453125 73.089844 97.617188 72.925781 97.617188 72.882812 C 97.617188 72.71875 97.453125 72.824219 97.1875 73.152344 Z M 97.1875 73.152344 "/>
<path style=" stroke:none;fill-rule:nonzero;fill:rgb(0%,0%,0%);fill-opacity:1;" d="M 134.140625 73.539062 C 134.019531 73.828125 133.976562 74.15625 134.039062 74.277344 C 134.121094 74.402344 134.101562 74.441406 133.976562 74.382812 C 133.875 74.320312 133.628906 74.523438 133.425781 74.851562 L 133.074219 75.449219 L 133.835938 75.777344 C 134.757812 76.164062 134.859375 76.164062 134.550781 75.796875 C 134.285156 75.46875 134.449219 73.621094 134.738281 73.621094 C 134.820312 73.621094 135.148438 73.828125 135.476562 74.074219 C 135.886719 74.382812 135.96875 74.421875 135.78125 74.175781 C 135.617188 73.972656 135.25 73.621094 134.941406 73.417969 L 134.386719 73.027344 Z M 134.140625 73.539062 "/>
<path style=" stroke:none;fill-rule:nonzero;fill:rgb(0%,0%,0%);fill-opacity:1;" d="M 89.558594 74.15625 C 88.921875 74.546875 88.390625 74.933594 88.390625 74.976562 C 88.390625 75.097656 90.253906 74.03125 90.644531 73.683594 C 91.136719 73.234375 90.789062 73.375 89.558594 74.15625 Z M 89.558594 74.15625 "/>
<path style=" stroke:none;fill-rule:nonzero;fill:rgb(0%,0%,0%);fill-opacity:1;" d="M 96.570312 73.972656 C 96.304688 74.300781 96.324219 74.320312 96.652344 74.054688 C 96.839844 73.910156 97.003906 73.746094 97.003906 73.703125 C 97.003906 73.539062 96.839844 73.644531 96.570312 73.972656 Z M 96.570312 73.972656 "/>
<path style=" stroke:none;fill-rule:nonzero;fill:rgb(0%,0%,0%);fill-opacity:1;" d="M 92.796875 76.0625 C 92.738281 76.308594 92.613281 76.492188 92.53125 76.492188 C 92.449219 76.492188 92.121094 76.71875 91.773438 77.007812 L 91.15625 77.519531 L 91.9375 77.089844 C 92.675781 76.679688 93.25 75.960938 93.042969 75.734375 C 92.984375 75.695312 92.878906 75.835938 92.796875 76.0625 Z M 92.796875 76.0625 "/>
<path style=" stroke:none;fill-rule:nonzero;fill:rgb(0%,0%,0%);fill-opacity:1;" d="M 86.316406 76.636719 C 86.050781 76.964844 86.070312 76.984375 86.398438 76.71875 C 86.585938 76.574219 86.75 76.410156 86.75 76.371094 C 86.75 76.207031 86.585938 76.308594 86.316406 76.636719 Z M 86.316406 76.636719 "/>
<path style=" stroke:none;fill-rule:nonzero;fill:rgb(0%,0%,0%);fill-opacity:1;" d="M 138.222656 76.351562 C 138.222656 76.390625 138.53125 76.679688 138.898438 77.027344 L 139.554688 77.621094 L 138.960938 76.945312 C 138.386719 76.328125 138.222656 76.1875 138.222656 76.351562 Z M 138.222656 76.351562 "/>
<path style=" stroke:none;fill-rule:nonzero;fill:rgb(0%,0%,0%);fill-opacity:1;" d="M 94.972656 77.355469 C 94.789062 77.992188 94.726562 78.976562 94.789062 80.125 C 94.890625 82.339844 95.566406 83.898438 97.351562 86.007812 C 98.007812 86.789062 98.929688 87.917969 99.382812 88.511719 L 100.242188 89.597656 L 100.753906 88.839844 C 101.042969 88.429688 101.882812 87.382812 102.621094 86.542969 C 104.34375 84.574219 105.410156 82.523438 105.554688 80.863281 L 105.675781 79.609375 L 105.019531 79.652344 C 104.671875 79.671875 104.386719 79.609375 104.386719 79.507812 C 104.386719 79.425781 104.179688 79.40625 103.953125 79.46875 C 103.667969 79.570312 103.441406 79.507812 103.339844 79.34375 C 103.195312 79.117188 103.15625 79.117188 103.15625 79.324219 C 103.15625 79.46875 103.277344 79.632812 103.421875 79.691406 C 103.769531 79.816406 103.789062 80.328125 103.441406 80.328125 C 103.296875 80.328125 103.238281 80.226562 103.296875 80.125 C 103.378906 80 103.296875 79.960938 103.09375 80.042969 C 102.886719 80.125 102.746094 80.042969 102.683594 79.816406 C 102.621094 79.609375 102.582031 79.691406 102.558594 80.019531 C 102.558594 80.308594 102.027344 81.539062 101.410156 82.75 C 100.796875 83.957031 100.285156 85.105469 100.285156 85.292969 C 100.261719 85.476562 100.097656 85.210938 99.894531 84.695312 C 99.710938 84.183594 99.175781 83.035156 98.726562 82.152344 C 98.046875 80.757812 97.925781 80.328125 97.945312 79.242188 C 97.945312 78.277344 97.882812 77.992188 97.679688 78.074219 C 97.535156 78.132812 97.414062 78.074219 97.414062 77.949219 C 97.414062 77.828125 97.351562 77.746094 97.269531 77.746094 C 96.695312 77.828125 96.429688 77.683594 96.53125 77.355469 C 96.632812 76.964844 96.140625 76.863281 95.628906 77.171875 C 95.484375 77.273438 95.363281 77.148438 95.320312 76.863281 C 95.28125 76.515625 95.175781 76.636719 94.972656 77.355469 Z M 103.050781 80.800781 C 103.113281 80.921875 103.03125 80.945312 102.867188 80.882812 C 102.5 80.738281 102.4375 80.59375 102.722656 80.59375 C 102.847656 80.59375 102.992188 80.675781 103.050781 80.800781 Z M 103.050781 80.800781 "/>
<path style=" stroke:none;fill-rule:nonzero;fill:rgb(0%,0%,0%);fill-opacity:1;" d="M 85.273438 77.582031 C 84.984375 77.828125 84.453125 78.359375 84.101562 78.769531 L 83.46875 79.507812 L 84.019531 79.40625 C 84.71875 79.28125 85.292969 78.769531 85.375 78.195312 C 85.394531 77.949219 85.558594 77.621094 85.703125 77.4375 C 86.09375 76.984375 85.929688 77.027344 85.273438 77.582031 Z M 85.273438 77.582031 "/>
<path style=" stroke:none;fill-rule:nonzero;fill:rgb(0%,0%,0%);fill-opacity:1;" d="M 137.8125 77.3125 C 137.976562 77.417969 138.222656 77.519531 138.324219 77.519531 C 138.449219 77.519531 138.386719 77.417969 138.222656 77.3125 C 138.058594 77.210938 137.832031 77.109375 137.710938 77.109375 C 137.609375 77.109375 137.648438 77.210938 137.8125 77.3125 Z M 137.8125 77.3125 "/>
<path style=" stroke:none;fill-rule:nonzero;fill:rgb(0%,0%,0%);fill-opacity:1;" d="M 138.839844 77.722656 C 139.003906 77.828125 139.25 77.929688 139.351562 77.929688 C 139.472656 77.929688 139.414062 77.828125 139.25 77.722656 C 139.085938 77.621094 138.859375 77.519531 138.734375 77.519531 C 138.632812 77.519531 138.675781 77.621094 138.839844 77.722656 Z M 138.839844 77.722656 "/>
<path style=" stroke:none;fill-rule:nonzero;fill:rgb(0%,0%,0%);fill-opacity:1;" d="M 139.71875 77.804688 C 139.71875 77.96875 139.964844 78.214844 140.253906 78.339844 L 140.785156 78.585938 L 140.292969 78.050781 C 139.699219 77.4375 139.71875 77.4375 139.71875 77.804688 Z M 139.71875 77.804688 "/>
<path style=" stroke:none;fill-rule:nonzero;fill:rgb(0%,0%,0%);fill-opacity:1;" d="M 105.453125 78.132812 C 105.453125 78.421875 105.492188 78.523438 105.554688 78.378906 C 105.59375 78.257812 105.59375 78.011719 105.554688 77.867188 C 105.492188 77.746094 105.453125 77.847656 105.453125 78.132812 Z M 105.453125 78.132812 "/>
<path style=" stroke:none;fill-rule:nonzero;fill:rgb(0%,0%,0%);fill-opacity:1;" d="M 88.183594 79.753906 C 87.734375 80.144531 87.363281 80.308594 87.160156 80.207031 C 86.996094 80.125 86.03125 80.082031 85.046875 80.125 C 83.589844 80.183594 83.261719 80.144531 83.386719 79.9375 C 83.488281 79.773438 83.40625 79.773438 83.160156 79.980469 C 82.8125 80.265625 82.933594 80.308594 84.511719 80.429688 C 85.457031 80.511719 86.460938 80.617188 86.75 80.675781 C 87.136719 80.738281 87.488281 80.574219 88.183594 79.980469 C 89.25 79.058594 89.25 78.871094 88.183594 79.753906 Z M 88.183594 79.753906 "/>
<path style=" stroke:none;fill-rule:nonzero;fill:rgb(0%,0%,0%);fill-opacity:1;" d="M 111.335938 80.125 L 110.84375 80.699219 L 111.417969 80.207031 C 111.726562 79.917969 111.972656 79.671875 111.972656 79.632812 C 111.972656 79.46875 111.808594 79.609375 111.335938 80.125 Z M 111.335938 80.125 "/>
<path style=" stroke:none;fill-rule:nonzero;fill:rgb(0%,0%,0%);fill-opacity:1;" d="M 79.980469 82.808594 C 79.980469 82.914062 80.246094 82.972656 80.597656 82.953125 C 80.925781 82.933594 81.148438 82.996094 81.089844 83.097656 C 81.027344 83.179688 81.355469 83.261719 81.828125 83.261719 C 82.296875 83.261719 82.625 83.179688 82.542969 83.078125 C 82.484375 82.953125 82.871094 82.832031 83.40625 82.789062 C 83.960938 82.75 83.40625 82.707031 82.195312 82.6875 C 80.964844 82.667969 79.980469 82.726562 79.980469 82.808594 Z M 79.980469 82.808594 "/>
<path style=" stroke:none;fill-rule:nonzero;fill:rgb(0%,0%,0%);fill-opacity:1;" d="M 108.488281 83.363281 C 108.117188 83.753906 107.832031 84.101562 107.890625 84.144531 C 107.933594 84.183594 108.28125 83.855469 108.671875 83.425781 C 109.53125 82.441406 109.410156 82.398438 108.488281 83.363281 Z M 108.488281 83.363281 "/>
<path style=" stroke:none;fill-rule:nonzero;fill:rgb(0%,0%,0%);fill-opacity:1;" d="M 79.285156 84.121094 C 79.34375 84.839844 79.632812 86.378906 79.898438 87.546875 C 81.191406 93.042969 84.289062 96.917969 88.902344 98.804688 C 90.378906 99.402344 93.578125 100.078125 94.953125 100.078125 L 95.957031 100.078125 L 95.445312 98.582031 C 94.253906 95.074219 91.199219 91.300781 87.671875 89.023438 C 86.890625 88.53125 86.359375 88.082031 86.480469 88.039062 C 86.605469 88 87.300781 88.183594 88.0625 88.46875 C 89.476562 89.003906 89.804688 89.023438 88.859375 88.511719 C 88.367188 88.246094 88.347656 88.203125 88.695312 88.183594 C 88.941406 88.183594 89.023438 88.121094 88.859375 88.019531 C 88.511719 87.792969 86.460938 87.855469 86.378906 88.082031 C 86.339844 88.183594 86.214844 88.429688 86.132812 88.613281 C 85.929688 88.984375 86.398438 89.476562 87.097656 89.660156 C 87.425781 89.742188 87.507812 89.699219 87.425781 89.496094 C 87.136719 88.714844 89.640625 90.460938 91.097656 92.039062 C 91.8125 92.816406 91.917969 93.003906 91.609375 93.0625 C 91.199219 93.144531 91.21875 93.699219 91.671875 94.089844 C 91.9375 94.292969 91.9375 94.316406 91.628906 94.210938 C 91.382812 94.128906 91.261719 94.191406 91.261719 94.375 C 91.261719 94.519531 91.074219 94.664062 90.828125 94.683594 C 90.460938 94.726562 90.441406 94.683594 90.6875 94.398438 C 90.933594 94.089844 90.910156 94.089844 90.480469 94.316406 C 90.070312 94.539062 90.050781 94.621094 90.277344 94.890625 C 90.890625 95.648438 88.226562 93.988281 87.117188 92.941406 C 86.195312 92.058594 85.949219 91.710938 86.011719 91.320312 C 86.070312 91.054688 86.03125 90.890625 85.90625 90.953125 C 85.804688 91.035156 85.765625 91.199219 85.847656 91.320312 C 85.90625 91.464844 85.804688 91.382812 85.621094 91.15625 C 85.128906 90.5625 83.960938 88.222656 83.671875 87.199219 C 83.488281 86.605469 83.078125 86.03125 82.339844 85.351562 C 80.617188 83.773438 79.507812 82.851562 79.34375 82.851562 C 79.242188 82.851562 79.222656 83.425781 79.285156 84.121094 Z M 93.886719 95.730469 C 94.191406 96.203125 94.191406 96.203125 93.597656 96.078125 C 92.449219 95.8125 92.429688 95.792969 92.695312 95.441406 C 93.042969 95.03125 93.496094 95.15625 93.886719 95.730469 Z M 93.886719 95.730469 "/>
<path style=" stroke:none;fill-rule:nonzero;fill:rgb(0%,0%,0%);fill-opacity:1;" d="M 87.527344 83.199219 C 87.671875 83.261719 87.855469 83.242188 87.917969 83.179688 C 88 83.117188 87.875 83.054688 87.652344 83.078125 C 87.425781 83.078125 87.363281 83.136719 87.527344 83.199219 Z M 87.527344 83.199219 "/>
<path style=" stroke:none;fill-rule:nonzero;fill:rgb(0%,0%,0%);fill-opacity:1;" d="M 89.476562 83.792969 C 89.804688 83.980469 90.007812 84.226562 89.96875 84.367188 C 89.90625 84.511719 89.988281 84.636719 90.132812 84.636719 C 90.277344 84.636719 90.359375 84.511719 90.296875 84.367188 C 90.234375 84.203125 90.335938 84.144531 90.625 84.226562 C 90.851562 84.285156 90.992188 84.429688 90.910156 84.554688 C 90.851562 84.65625 90.871094 84.695312 90.972656 84.636719 C 91.097656 84.574219 91.566406 84.695312 92.039062 84.902344 C 92.511719 85.128906 92.902344 85.25 92.902344 85.1875 C 92.902344 85.023438 89.496094 83.464844 89.1875 83.464844 C 89.023438 83.488281 89.167969 83.628906 89.476562 83.792969 Z M 89.476562 83.792969 "/>
<path style=" stroke:none;fill-rule:nonzero;fill:rgb(0%,0%,0%);fill-opacity:1;" d="M 130.265625 85.925781 C 130.265625 86.214844 130.308594 86.316406 130.367188 86.171875 C 130.410156 86.050781 130.410156 85.804688 130.367188 85.660156 C 130.308594 85.539062 130.265625 85.640625 130.265625 85.925781 Z M 130.265625 85.925781 "/>
<path style=" stroke:none;fill-rule:nonzero;fill:rgb(0%,0%,0%);fill-opacity:1;" d="M 104.589844 87.609375 C 104.078125 88.222656 103.933594 88.46875 104.261719 88.183594 C 104.835938 87.671875 105.71875 86.542969 105.554688 86.542969 C 105.511719 86.542969 105.082031 87.035156 104.589844 87.609375 Z M 104.589844 87.609375 "/>
<path style=" stroke:none;fill-rule:nonzero;fill:rgb(0%,0%,0%);fill-opacity:1;" d="M 95.773438 87.773438 C 96.242188 88.328125 96.675781 88.796875 96.734375 88.796875 C 96.796875 88.796875 96.449219 88.328125 95.976562 87.773438 C 95.503906 87.199219 95.074219 86.746094 95.011719 86.746094 C 94.953125 86.746094 95.300781 87.199219 95.773438 87.773438 Z M 95.773438 87.773438 "/>
<path style=" stroke:none;fill-rule:nonzero;fill:rgb(0%,0%,0%);fill-opacity:1;" d="M 130.492188 87.773438 C 130.492188 88.386719 130.53125 88.65625 130.574219 88.328125 C 130.613281 88.019531 130.613281 87.527344 130.574219 87.199219 C 130.53125 86.890625 130.492188 87.15625 130.492188 87.773438 Z M 130.492188 87.773438 "/>
<path style=" stroke:none;fill-rule:nonzero;fill:rgb(0%,0%,0%);fill-opacity:1;" d="M 103.339844 89.148438 C 103.074219 89.476562 103.09375 89.496094 103.421875 89.230469 C 103.605469 89.085938 103.769531 88.921875 103.769531 88.878906 C 103.769531 88.714844 103.605469 88.820312 103.339844 89.148438 Z M 103.339844 89.148438 "/>
<path style=" stroke:none;fill-rule:nonzero;fill:rgb(0%,0%,0%);fill-opacity:1;" d="M 130.71875 90.953125 C 130.71875 92.078125 130.738281 92.511719 130.777344 91.914062 C 130.820312 91.320312 130.820312 90.398438 130.777344 89.863281 C 130.738281 89.332031 130.71875 89.824219 130.71875 90.953125 Z M 130.71875 90.953125 "/>
<path style=" stroke:none;fill-rule:nonzero;fill:rgb(0%,0%,0%);fill-opacity:1;" d="M 84.863281 89.351562 C 85.003906 89.414062 85.191406 89.394531 85.25 89.332031 C 85.332031 89.269531 85.210938 89.207031 84.984375 89.230469 C 84.757812 89.230469 84.699219 89.289062 84.863281 89.351562 Z M 84.863281 89.351562 "/>
<path style=" stroke:none;fill-rule:nonzero;fill:rgb(0%,0%,0%);fill-opacity:1;" d="M 78.09375 89.742188 C 77.785156 90.234375 77.273438 93.636719 77.171875 95.875 C 76.742188 105.777344 82.402344 115.539062 91.34375 120.296875 C 93.066406 121.222656 95.546875 122.226562 96.078125 122.226562 C 96.324219 122.226562 96.386719 121.855469 96.386719 120.195312 L 96.386719 118.1875 L 95.21875 117.734375 C 91.546875 116.339844 87.363281 112.914062 84.902344 109.304688 C 82.542969 105.839844 81.007812 100.980469 81.007812 96.917969 C 81.007812 95.585938 80.925781 95.136719 80.574219 94.644531 C 79.941406 93.699219 78.933594 91.667969 78.546875 90.5625 C 78.359375 89.988281 78.15625 89.640625 78.09375 89.742188 Z M 78.09375 89.742188 "/>
<path style=" stroke:none;fill-rule:nonzero;fill:rgb(0%,0%,0%);fill-opacity:1;" d="M 90.851562 89.679688 C 90.851562 89.742188 91.097656 89.925781 91.382812 90.132812 C 91.691406 90.316406 91.855469 90.378906 91.792969 90.253906 C 91.648438 90.027344 90.851562 89.535156 90.851562 89.679688 Z M 90.851562 89.679688 "/>
<path style=" stroke:none;fill-rule:nonzero;fill:rgb(0%,0%,0%);fill-opacity:1;" d="M 102.804688 89.863281 C 102.5 90.273438 102.292969 90.644531 102.394531 90.644531 C 102.457031 90.644531 102.640625 90.417969 102.828125 90.132812 C 103.175781 89.597656 103.15625 89.414062 102.804688 89.863281 Z M 102.804688 89.863281 "/>
<path style=" stroke:none;fill-rule:nonzero;fill:rgb(0%,0%,0%);fill-opacity:1;" d="M 85.109375 90.109375 C 85.109375 90.152344 85.25 90.234375 85.414062 90.316406 C 85.578125 90.378906 85.722656 90.335938 85.722656 90.234375 C 85.722656 90.109375 85.578125 90.027344 85.414062 90.027344 C 85.25 90.027344 85.109375 90.070312 85.109375 90.109375 Z M 85.109375 90.109375 "/>
<path style=" stroke:none;fill-rule:nonzero;fill:rgb(0%,0%,0%);fill-opacity:1;" d="M 86.421875 90.273438 C 86.339844 90.417969 86.339844 90.480469 86.441406 90.398438 C 86.523438 90.316406 86.707031 90.335938 86.851562 90.4375 C 87.015625 90.582031 87.097656 90.542969 87.097656 90.335938 C 87.097656 89.96875 86.625 89.925781 86.421875 90.273438 Z M 86.421875 90.273438 "/>
<path style=" stroke:none;fill-rule:nonzero;fill:rgb(0%,0%,0%);fill-opacity:1;" d="M 93.925781 92.222656 C 95.09375 93.578125 95.300781 93.761719 94.972656 93.125 C 94.847656 92.921875 94.828125 92.695312 94.890625 92.613281 C 95.074219 92.429688 94.316406 91.648438 94.089844 91.792969 C 93.988281 91.855469 93.660156 91.691406 93.351562 91.445312 C 93.066406 91.175781 93.332031 91.527344 93.925781 92.222656 Z M 93.925781 92.222656 "/>
<path style=" stroke:none;fill-rule:nonzero;fill:rgb(0%,0%,0%);fill-opacity:1;" d="M 98.726562 92.632812 C 98.765625 92.898438 98.703125 93.105469 98.582031 93.105469 C 98.4375 93.105469 98.5 93.207031 98.703125 93.332031 C 98.890625 93.433594 99.054688 93.699219 99.074219 93.882812 C 99.074219 94.070312 99.136719 94.128906 99.175781 94.007812 C 99.21875 93.90625 99.113281 93.433594 98.949219 92.980469 C 98.785156 92.550781 98.683594 92.386719 98.726562 92.632812 Z M 98.726562 92.632812 "/>
<path style=" stroke:none;fill-rule:nonzero;fill:rgb(0%,0%,0%);fill-opacity:1;" d="M 101 92.921875 C 100.816406 93.269531 100.695312 93.597656 100.734375 93.636719 C 100.796875 93.679688 100.980469 93.390625 101.164062 93.003906 C 101.597656 92.121094 101.433594 92.039062 101 92.921875 Z M 101 92.921875 "/>
<path style=" stroke:none;fill-rule:nonzero;fill:rgb(0%,0%,0%);fill-opacity:1;" d="M 127.25 92.714844 C 127.167969 92.816406 126.902344 93.945312 126.65625 95.21875 C 125.960938 98.664062 124.378906 102.046875 122.800781 103.460938 C 122.433594 103.808594 122.289062 103.890625 122.492188 103.644531 C 122.761719 103.316406 122.78125 103.175781 122.597656 102.988281 C 122.289062 102.683594 122.023438 102.683594 122.023438 102.96875 C 122.023438 103.070312 122.144531 103.113281 122.289062 103.03125 C 122.410156 102.949219 122.328125 103.09375 122.0625 103.339844 C 121.816406 103.585938 121.652344 103.871094 121.714844 103.972656 C 121.878906 104.261719 121.058594 104.425781 120.628906 104.199219 C 120.402344 104.078125 120.15625 104.054688 120.074219 104.136719 C 119.972656 104.21875 119.972656 104.160156 120.054688 104.015625 C 120.238281 103.707031 119.644531 103.070312 119.355469 103.257812 C 119.234375 103.339844 119.152344 103.316406 119.171875 103.214844 C 119.234375 102.804688 119.128906 102.519531 118.945312 102.640625 C 118.800781 102.722656 118.800781 102.601562 118.945312 102.25 C 119.171875 101.636719 119.007812 101.042969 118.660156 101.246094 C 118.535156 101.308594 119.457031 100.304688 120.730469 99.011719 C 121.980469 97.699219 123.109375 96.449219 123.230469 96.203125 C 123.375 95.976562 122.699219 96.40625 121.734375 97.164062 C 120.792969 97.925781 118.535156 99.359375 116.75 100.386719 C 109.449219 104.546875 106.3125 107.132812 103.03125 111.683594 C 101.023438 114.496094 99.03125 119.171875 98.726562 121.898438 L 98.601562 122.984375 L 99.585938 123.109375 C 100.140625 123.191406 101.351562 123.3125 102.273438 123.375 L 103.933594 123.519531 L 104.058594 122.511719 C 104.527344 118.554688 105.308594 115.890625 106.683594 113.449219 C 107.316406 112.363281 107.625 111.992188 107.851562 112.074219 C 108.527344 112.339844 112.957031 112.421875 114.496094 112.199219 C 118.25 111.664062 121.917969 109.941406 124.523438 107.5 C 127.742188 104.464844 130.082031 99.605469 130.554688 94.929688 C 130.675781 93.761719 130.636719 93.578125 130.347656 93.578125 C 130.164062 93.578125 130.019531 93.742188 130.019531 93.964844 C 130.019531 94.316406 129.957031 94.316406 129.34375 93.84375 C 128.953125 93.554688 128.605469 93.371094 128.523438 93.433594 C 128.460938 93.496094 128.316406 93.371094 128.195312 93.144531 C 127.949219 92.675781 127.414062 92.429688 127.25 92.714844 Z M 118.945312 101.71875 C 118.945312 101.820312 118.863281 101.921875 118.742188 101.921875 C 118.636719 101.921875 118.535156 101.820312 118.535156 101.71875 C 118.535156 101.59375 118.636719 101.511719 118.742188 101.511719 C 118.863281 101.511719 118.945312 101.59375 118.945312 101.71875 Z M 118.945312 101.71875 "/>
<path style=" stroke:none;fill-rule:nonzero;fill:rgb(0%,0%,0%);fill-opacity:1;" d="M 96.324219 95.503906 C 96.632812 96.078125 96.921875 96.550781 96.941406 96.53125 C 96.960938 96.507812 96.898438 96.160156 96.796875 95.769531 C 96.714844 95.382812 96.613281 95.136719 96.613281 95.257812 C 96.59375 95.359375 96.386719 95.238281 96.160156 94.949219 C 95.894531 94.601562 95.9375 94.785156 96.324219 95.503906 Z M 96.324219 95.503906 "/>
<path style=" stroke:none;fill-rule:nonzero;fill:rgb(0%,0%,0%);fill-opacity:1;" d="M 108.199219 96.835938 C 106.824219 98.394531 105.675781 100.835938 105.207031 103.152344 C 104.980469 104.21875 104.796875 105.410156 104.796875 105.800781 L 104.796875 106.496094 L 105.984375 105.367188 C 108.40625 103.070312 110.925781 101.511719 115.644531 99.359375 C 118.742188 97.964844 119.582031 97.472656 117.53125 98.253906 C 116.363281 98.683594 115.664062 98.640625 114.578125 98.089844 C 114.023438 97.820312 113.902344 97.246094 114.414062 97.351562 C 114.535156 97.390625 114.640625 97.308594 114.640625 97.207031 C 114.640625 96.917969 114.597656 96.941406 113.613281 97.453125 C 112.425781 98.089844 110.496094 99.996094 109.941406 101.042969 C 109.53125 101.863281 109.101562 102.210938 109.101562 101.71875 C 109.101562 101.371094 109.203125 101.207031 109.367188 101.265625 C 109.472656 101.289062 109.492188 101.226562 109.410156 101.101562 C 109.328125 100.960938 109.164062 100.960938 108.875 101.101562 C 108.609375 101.265625 108.488281 101.246094 108.488281 101.101562 C 108.488281 100.980469 108.40625 100.917969 108.324219 100.980469 C 108.21875 101.042969 108.136719 100.960938 108.136719 100.796875 C 108.136719 100.632812 108.21875 100.550781 108.324219 100.609375 C 108.609375 100.796875 108.507812 100.488281 108.136719 100.097656 C 107.933594 99.894531 107.605469 99.667969 107.378906 99.605469 C 107.152344 99.503906 107.050781 99.339844 107.132812 99.132812 C 107.195312 98.949219 107.257812 98.703125 107.257812 98.558594 C 107.257812 98.417969 107.707031 97.738281 108.28125 97.042969 C 109.53125 95.503906 109.472656 95.382812 108.199219 96.835938 Z M 108.199219 96.835938 "/>
<path style=" stroke:none;fill-rule:nonzero;fill:rgb(0%,0%,0%);fill-opacity:1;" d="M 83.363281 99.175781 C 83.980469 104.957031 87.324219 110.433594 92.265625 113.714844 C 93.78125 114.71875 95.894531 115.867188 96.242188 115.867188 C 96.265625 115.867188 96.265625 112.832031 96.222656 109.121094 L 96.160156 102.394531 L 94.4375 102.25 C 90.542969 101.921875 86.832031 100.550781 84 98.355469 L 83.199219 97.738281 Z M 93.722656 102.558594 C 93.722656 102.660156 93.824219 102.703125 93.925781 102.640625 C 94.050781 102.578125 94.132812 102.621094 94.132812 102.722656 C 94.132812 102.847656 94.050781 102.949219 93.925781 102.949219 C 93.824219 102.949219 93.722656 103.09375 93.722656 103.257812 C 93.722656 103.6875 93.25 103.644531 92.695312 103.152344 C 92.386719 102.886719 92.328125 102.742188 92.511719 102.742188 C 92.738281 102.742188 92.738281 102.703125 92.492188 102.539062 C 92.265625 102.394531 92.386719 102.332031 92.960938 102.332031 C 93.371094 102.332031 93.722656 102.4375 93.722656 102.558594 Z M 93.722656 102.558594 "/>
<path style=" stroke:none;fill-rule:nonzero;fill:rgb(0%,0%,0%);fill-opacity:1;" d="M 119.480469 100.609375 C 119.398438 100.816406 119.457031 100.898438 119.601562 100.855469 C 119.910156 100.753906 120.074219 100.28125 119.808594 100.28125 C 119.703125 100.28125 119.539062 100.425781 119.480469 100.609375 Z M 119.480469 100.609375 "/>
<path style=" stroke:none;fill-rule:nonzero;fill:rgb(0%,0%,0%);fill-opacity:1;" d="M 126.226562 108.566406 C 122.1875 112.648438 117.632812 114.433594 111.234375 114.433594 L 108.507812 114.433594 L 107.914062 115.703125 C 106.96875 117.714844 106.457031 119.519531 106.25 121.40625 C 106.167969 122.371094 106.128906 123.191406 106.167969 123.230469 C 106.3125 123.414062 110.046875 122.65625 111.664062 122.125 C 113.675781 121.46875 116.402344 120.132812 118.371094 118.820312 C 121.488281 116.75 125.160156 112.691406 127.003906 109.304688 C 127.683594 108.097656 128.460938 106.394531 128.339844 106.457031 C 128.296875 106.476562 127.355469 107.417969 126.226562 108.566406 Z M 126.226562 108.566406 "/>
<path style=" stroke:none;fill-rule:nonzero;fill:rgb(0%,0%,0%);fill-opacity:1;" d="M 58.449219 128.808594 C 57.382812 130.058594 56.480469 131.148438 56.4375 131.269531 C 56.398438 131.371094 57.195312 131.453125 58.34375 131.453125 L 60.3125 131.453125 L 62.386719 129.648438 C 63.511719 128.664062 64.765625 127.578125 65.152344 127.230469 L 65.890625 126.613281 L 63.125 126.574219 L 60.375 126.554688 Z M 58.449219 128.808594 "/>
<path style=" stroke:none;fill-rule:nonzero;fill:rgb(0%,0%,0%);fill-opacity:1;" d="M 56.910156 133.175781 C 51.042969 134.324219 47.578125 138.449219 47.578125 144.25 C 47.597656 147.59375 48.707031 150.074219 51.207031 152.371094 C 53.300781 154.300781 56.191406 155.304688 59.472656 155.304688 C 61.6875 155.304688 63.042969 154.996094 65.132812 154.011719 C 66.445312 153.378906 67.082031 152.90625 68.148438 151.777344 C 70.546875 149.234375 71.265625 147.246094 71.121094 143.535156 C 71.039062 141.175781 71.019531 141.09375 70.136719 139.308594 C 68.210938 135.414062 64.824219 133.257812 60.273438 133.011719 C 59.0625 132.929688 57.8125 133.011719 56.910156 133.175781 Z M 62.261719 137.914062 C 63.554688 138.488281 64.640625 139.554688 65.359375 140.949219 C 66.136719 142.46875 66.261719 145.011719 65.644531 146.652344 C 65.050781 148.1875 63.839844 149.542969 62.386719 150.261719 C 61.378906 150.753906 60.96875 150.835938 59.472656 150.835938 C 58.015625 150.835938 57.546875 150.753906 56.582031 150.300781 C 55.167969 149.625 53.976562 148.476562 53.300781 147.121094 C 52.871094 146.261719 52.808594 145.832031 52.808594 144.066406 C 52.808594 142.34375 52.890625 141.871094 53.28125 141.050781 C 54.921875 137.769531 58.859375 136.398438 62.261719 137.914062 Z M 62.261719 137.914062 "/>
<path style=" stroke:none;fill-rule:nonzero;fill:rgb(0%,0%,0%);fill-opacity:1;" d="M 74.914062 144.109375 L 74.957031 154.9375 L 80.082031 154.9375 L 80.144531 151.796875 L 80.207031 148.660156 L 84.800781 148.785156 L 86.851562 151.859375 L 88.902344 154.9375 L 91.730469 154.996094 C 93.269531 155.019531 94.542969 154.996094 94.542969 154.9375 C 94.542969 154.894531 93.476562 153.296875 92.183594 151.410156 C 90.890625 149.542969 89.824219 147.921875 89.824219 147.859375 C 89.824219 147.777344 90.113281 147.59375 90.460938 147.449219 C 91.363281 147.082031 92.738281 145.644531 93.269531 144.558594 C 94.273438 142.46875 94.296875 139.65625 93.3125 137.566406 C 92.796875 136.457031 91.28125 134.960938 90.070312 134.347656 C 88.246094 133.421875 87.21875 133.300781 80.863281 133.300781 L 74.855469 133.300781 Z M 87.054688 137.933594 C 87.507812 138.160156 88.101562 138.671875 88.347656 139.0625 C 88.757812 139.65625 88.820312 139.964844 88.757812 141.09375 C 88.675781 142.671875 88.183594 143.511719 87.015625 144.085938 C 86.378906 144.394531 85.660156 144.496094 83.222656 144.539062 L 80.1875 144.601562 L 80.1875 137.359375 L 83.222656 137.441406 C 85.785156 137.484375 86.359375 137.566406 87.054688 137.933594 Z M 87.054688 137.933594 "/>
<path style=" stroke:none;fill-rule:nonzero;fill:rgb(0%,0%,0%);fill-opacity:1;" d="M 98.027344 144.167969 L 98.027344 155.058594 L 100.550781 154.996094 L 103.050781 154.9375 L 103.15625 152.148438 L 103.257812 149.359375 L 104.652344 147.859375 C 105.472656 146.980469 106.109375 146.445312 106.191406 146.570312 C 106.273438 146.671875 107.808594 148.640625 109.613281 150.917969 L 112.894531 155.039062 L 115.953125 155.039062 C 118.351562 155.039062 118.945312 154.976562 118.800781 154.773438 C 118.679688 154.648438 116.546875 151.921875 114.042969 148.742188 C 111.5625 145.542969 109.511719 142.878906 109.511719 142.796875 C 109.53125 142.691406 111.5 140.558594 113.902344 138.015625 L 118.269531 133.402344 L 115.378906 133.339844 L 112.484375 133.28125 L 110.84375 134.980469 C 109.941406 135.925781 107.832031 138.121094 106.167969 139.863281 L 103.15625 143.042969 L 103.15625 133.300781 L 98.027344 133.300781 Z M 98.027344 144.167969 "/>
<path style=" stroke:none;fill-rule:nonzero;fill:rgb(0%,0%,0%);fill-opacity:1;" d="M 121.203125 144.167969 L 121.203125 155.039062 L 138.429688 155.039062 L 138.429688 152.988281 C 138.429688 150.773438 138.511719 150.9375 137.300781 150.835938 C 137.074219 150.8125 134.511719 150.773438 131.621094 150.753906 L 126.328125 150.730469 L 126.328125 146.015625 L 136.582031 146.015625 L 136.582031 141.914062 L 126.328125 141.914062 L 126.328125 137.402344 L 138.019531 137.402344 L 138.019531 133.300781 L 121.203125 133.300781 Z M 121.203125 144.167969 "/>
<path style=" stroke:none;fill-rule:nonzero;fill:rgb(0%,0%,0%);fill-opacity:1;" d="M 142.222656 144.128906 L 142.222656 154.9375 L 144.722656 154.996094 L 147.246094 155.058594 L 147.289062 148.476562 L 147.347656 141.894531 L 152.679688 148.414062 L 158.011719 154.9375 L 160.226562 154.996094 L 162.421875 155.058594 L 162.421875 133.300781 L 157.296875 133.300781 L 157.253906 139.78125 L 157.191406 146.242188 L 155.550781 144.210938 C 154.648438 143.082031 152.292969 140.171875 150.324219 137.730469 L 146.734375 133.320312 L 144.476562 133.300781 L 142.222656 133.300781 Z M 142.222656 144.128906 "/>
</g>
</svg>
